<svg xmlns="http://www.w3.org/2000/svg" version="1.1" xmlns:xlink="http://www.w3.org/1999/xlink" xmlns:svgjs="http://svgjs.com/svgjs" width="1440" height="560" preserveAspectRatio="none" viewBox="0 0 1440 560"><g mask="url(&quot;#SvgjsMask1209&quot;)" fill="none"><rect width="1440" height="560" x="0" y="0" fill="url(#SvgjsLinearGradient1210)"></rect><g transform="translate(14.4, 0)" stroke-linecap="round"><path d="M317 251.72 L317 308.29" stroke-width="19.5" stroke="#dd1133"></path><path d="M343 184.95 L343 375.05" stroke-width="19.5" stroke="#dd1133"></path><path d="M369 240.81 L369 319.19" stroke-width="19.5" stroke="#dd1133"></path><path d="M395 215.82 L395 344.18" stroke-width="19.5" stroke="#3a7cc3"></path><path d="M421 130.03 L421 429.97" stroke-width="19.5" stroke="#dd1133"></path><path d="M447 249.25 L447 310.75" stroke-width="19.5" stroke="#dd1133"></path><path d="M473 137.32 L473 422.68" stroke-width="19.5" stroke="#dd1133"></path><path d="M499 159.06 L499 400.94" stroke-width="19.5" stroke="#dd1133"></path><path d="M525 147.97 L525 412.02" stroke-width="19.5" stroke="#3a7cc3"></path><path d="M551 255.44 L551 304.56" stroke-width="19.5" stroke="#dd1133"></path><path d="M577 231.97 L577 328.03" stroke-width="19.5" stroke="#3a7cc3"></path><path d="M603 137.58 L603 422.42" stroke-width="19.5" stroke="#dd1133"></path><path d="M629 211.72 L629 348.27" stroke-width="19.5" stroke="#dd1133"></path><path d="M655 143.66 L655 416.34" stroke-width="19.5" stroke="#dd1133"></path><path d="M681 206.21 L681 353.79" stroke-width="19.5" stroke="#dd1133"></path><path d="M707 217.47 L707 342.53" stroke-width="19.5" stroke="#dd1133"></path><path d="M733 214.27 L733 345.73" stroke-width="19.5" stroke="#3a7cc3"></path><path d="M759 201.62 L759 358.38" stroke-width="19.5" stroke="#3a7cc3"></path><path d="M785 178 L785 382" stroke-width="19.5" stroke="#3a7cc3"></path><path d="M811 221.65 L811 338.35" stroke-width="19.5" stroke="#dd1133"></path><path d="M837 218.5 L837 341.5" stroke-width="19.5" stroke="#3a7cc3"></path><path d="M863 202.01 L863 357.99" stroke-width="19.5" stroke="#dd1133"></path><path d="M889 167.11 L889 392.89" stroke-width="19.5" stroke="#3a7cc3"></path><path d="M915 227.62 L915 332.38" stroke-width="19.5" stroke="#3a7cc3"></path><path d="M941 209.18 L941 350.82" stroke-width="19.5" stroke="#3a7cc3"></path><path d="M967 208.72 L967 351.28" stroke-width="19.5" stroke="#dd1133"></path><path d="M993 157.13 L993 402.88" stroke-width="19.5" stroke="#dd1133"></path><path d="M1019 250.91 L1019 309.09" stroke-width="19.5" stroke="#dd1133"></path><path d="M1045 244.97 L1045 315.02" stroke-width="19.5" stroke="#3a7cc3"></path><path d="M1071 219.33 L1071 340.67" stroke-width="19.5" stroke="#3a7cc3"></path><path d="M1097 251.84 L1097 308.17" stroke-width="19.5" stroke="#dd1133"></path><path d="M1123 129.26 L1123 430.74" stroke-width="19.5" stroke="#3a7cc3"></path></g></g><defs><mask id="SvgjsMask1209"><rect width="1440" height="560" fill="#ffffff"></rect></mask><linearGradient x1="15.28%" y1="-39.29%" x2="84.72%" y2="139.29%" gradientUnits="userSpaceOnUse" id="SvgjsLinearGradient1210"><stop stop-color="#0e2a47" offset="0"></stop><stop stop-color="#00459e" offset="1"></stop></linearGradient></defs></svg>