<svg xmlns="http://www.w3.org/2000/svg" version="1.1" xmlns:xlink="http://www.w3.org/1999/xlink" xmlns:svgjs="http://svgjs.com/svgjs" width="1440" height="1080" preserveAspectRatio="none" viewBox="0 0 1440 1080"><g mask="url(&quot;#SvgjsMask1217&quot;)" fill="none"><rect width="1440" height="1080" x="0" y="0" fill="url(#SvgjsLinearGradient1218)"></rect><g transform="translate(14.4, 0)" stroke-linecap="round"><path d="M317 458.03 L317 621.97" stroke-width="19.5" stroke="#dd1133"></path><path d="M343 432.31 L343 647.69" stroke-width="19.5" stroke="#3a7cc3"></path><path d="M369 271.95 L369 808.05" stroke-width="19.5" stroke="#dd1133"></path><path d="M395 389.88 L395 690.12" stroke-width="19.5" stroke="#3a7cc3"></path><path d="M421 339.49 L421 740.51" stroke-width="19.5" stroke="#dd1133"></path><path d="M447 417.08 L447 662.91" stroke-width="19.5" stroke="#3a7cc3"></path><path d="M473 295.77 L473 784.23" stroke-width="19.5" stroke="#dd1133"></path><path d="M499 259.65 L499 820.35" stroke-width="19.5" stroke="#dd1133"></path><path d="M525 420.26 L525 659.74" stroke-width="19.5" stroke="#dd1133"></path><path d="M551 502.23 L551 577.77" stroke-width="19.5" stroke="#dd1133"></path><path d="M577 369.25 L577 710.75" stroke-width="19.5" stroke="#3a7cc3"></path><path d="M603 497.41 L603 582.59" stroke-width="19.5" stroke="#3a7cc3"></path><path d="M629 337.89 L629 742.11" stroke-width="19.5" stroke="#dd1133"></path><path d="M655 349.32 L655 730.68" stroke-width="19.5" stroke="#dd1133"></path><path d="M681 348.25 L681 731.75" stroke-width="19.5" stroke="#3a7cc3"></path><path d="M707 323.62 L707 756.38" stroke-width="19.5" stroke="#dd1133"></path><path d="M733 490.39 L733 589.61" stroke-width="19.5" stroke="#dd1133"></path><path d="M759 475.36 L759 604.64" stroke-width="19.5" stroke="#dd1133"></path><path d="M785 280.2 L785 799.8" stroke-width="19.5" stroke="#dd1133"></path><path d="M811 429.91 L811 650.09" stroke-width="19.5" stroke="#dd1133"></path><path d="M837 427.5 L837 652.5" stroke-width="19.5" stroke="#3a7cc3"></path><path d="M863 355.5 L863 724.5" stroke-width="19.5" stroke="#dd1133"></path><path d="M889 343.72 L889 736.28" stroke-width="19.5" stroke="#3a7cc3"></path><path d="M915 340.24 L915 739.76" stroke-width="19.5" stroke="#dd1133"></path><path d="M941 422.23 L941 657.77" stroke-width="19.5" stroke="#3a7cc3"></path><path d="M967 269.15 L967 810.85" stroke-width="19.5" stroke="#dd1133"></path><path d="M993 471.18 L993 608.82" stroke-width="19.5" stroke="#3a7cc3"></path><path d="M1019 415.27 L1019 664.73" stroke-width="19.5" stroke="#dd1133"></path><path d="M1045 324.38 L1045 755.62" stroke-width="19.5" stroke="#3a7cc3"></path><path d="M1071 506.99 L1071 573.01" stroke-width="19.5" stroke="#dd1133"></path><path d="M1097 505.32 L1097 574.68" stroke-width="19.5" stroke="#dd1133"></path><path d="M1123 242.37 L1123 837.63" stroke-width="19.5" stroke="#3a7cc3"></path></g></g><defs><mask id="SvgjsMask1217"><rect width="1440" height="1080" fill="#ffffff"></rect></mask><linearGradient x1="6.25%" y1="-8.33%" x2="93.75%" y2="108.33%" gradientUnits="userSpaceOnUse" id="SvgjsLinearGradient1218"><stop stop-color="#0e2a47" offset="0"></stop><stop stop-color="#00459e" offset="1"></stop></linearGradient></defs></svg>